<svg width="502.7" height="90.001" viewBox="0 0 502.7 90.001" xmlns="http://www.w3.org/2000/svg"><g id="svgGroup" stroke-linecap="round" fill-rule="evenodd" font-size="9pt" stroke="#f05" stroke-width="0.25mm" fill="#f05" style="stroke:#f05;stroke-width:0.25mm;fill:#f05"><path d="M 359.3 67.5 L 359.3 77.4 A 5.183 5.183 0 0 1 359.122 78.825 Q 358.664 80.423 357.033 80.847 A 5.304 5.304 0 0 1 355.7 81 L 340.5 81 A 5.183 5.183 0 0 1 339.076 80.822 Q 337.478 80.364 337.054 78.734 A 5.304 5.304 0 0 1 336.9 77.4 L 336.9 66.7 Q 336.9 63.6 337.25 61.65 A 14.147 14.147 0 0 1 338.072 58.787 A 12.74 12.74 0 0 1 338.4 58.05 Q 339.2 56.4 340.7 54.4 L 348.8 43.5 L 340.7 32.6 A 46.855 46.855 0 0 1 339.667 31.096 Q 339.177 30.35 338.786 29.68 A 22.292 22.292 0 0 1 338.35 28.9 A 10.851 10.851 0 0 1 337.32 26.01 A 12.617 12.617 0 0 1 337.2 25.35 A 21.696 21.696 0 0 1 337.029 23.874 Q 336.9 22.335 336.9 20.3 L 336.9 12.6 A 5.183 5.183 0 0 1 337.079 11.176 Q 337.536 9.578 339.167 9.154 A 5.304 5.304 0 0 1 340.5 9 L 355.9 9 A 5.183 5.183 0 0 1 357.325 9.179 Q 358.922 9.636 359.347 11.267 A 5.304 5.304 0 0 1 359.5 12.6 L 359.5 19.5 A 22.326 22.326 0 0 0 359.554 21.023 A 25.913 25.913 0 0 0 359.6 21.6 A 4.173 4.173 0 0 0 360.159 23.322 A 5.124 5.124 0 0 0 360.4 23.7 L 364.8 30 A 6.55 6.55 0 0 0 365.215 30.593 Q 365.444 30.882 365.683 31.104 A 3.546 3.546 0 0 0 365.85 31.25 A 1.979 1.979 0 0 0 366.897 31.683 A 2.606 2.606 0 0 0 367.2 31.7 L 368.4 31.7 A 2.319 2.319 0 0 0 368.979 31.632 A 1.689 1.689 0 0 0 369.7 31.25 A 6.009 6.009 0 0 0 370.088 30.865 Q 370.277 30.66 370.479 30.412 A 13.334 13.334 0 0 0 370.8 30 L 375.3 23.7 Q 376 22.7 376.1 21.6 A 24.225 24.225 0 0 0 376.192 20.071 A 20.862 20.862 0 0 0 376.2 19.5 L 376.2 12.6 A 5.183 5.183 0 0 1 376.379 11.176 Q 376.836 9.578 378.467 9.154 A 5.304 5.304 0 0 1 379.8 9 L 395 9 A 5.183 5.183 0 0 1 396.425 9.179 Q 398.022 9.636 398.447 11.267 A 5.304 5.304 0 0 1 398.6 12.6 L 398.6 20.3 Q 398.6 22.335 398.471 23.874 A 21.696 21.696 0 0 1 398.3 25.35 A 11.52 11.52 0 0 1 397.585 27.973 A 10.267 10.267 0 0 1 397.15 28.9 A 24.19 24.19 0 0 1 396.421 30.171 Q 396.079 30.729 395.674 31.337 A 48.29 48.29 0 0 1 394.8 32.6 L 386.7 43.6 L 394.8 54.4 A 27.154 27.154 0 0 1 395.888 55.851 Q 396.395 56.581 396.781 57.258 A 13.454 13.454 0 0 1 397.2 58.05 A 12.405 12.405 0 0 1 398.217 61.168 A 14.129 14.129 0 0 1 398.3 61.65 A 21.696 21.696 0 0 1 398.471 63.127 Q 398.6 64.666 398.6 66.7 L 398.6 77.4 A 5.183 5.183 0 0 1 398.422 78.825 Q 397.964 80.423 396.333 80.847 A 5.304 5.304 0 0 1 395 81 L 379.8 81 A 5.183 5.183 0 0 1 378.376 80.822 Q 376.778 80.364 376.354 78.734 A 5.304 5.304 0 0 1 376.2 77.4 L 376.2 67.5 L 376.2 67.1 Q 376.2 66.2 376.1 65.25 Q 376.006 64.356 375.381 63.418 A 6.261 6.261 0 0 0 375.3 63.3 L 370.9 57 A 9.757 9.757 0 0 0 370.535 56.487 Q 370.178 56.02 369.861 55.751 A 2.642 2.642 0 0 0 369.8 55.7 Q 369.3 55.3 368.5 55.3 L 367.1 55.3 Q 366.3 55.3 365.8 55.7 Q 365.3 56.1 364.7 57 L 360.2 63.3 A 5.339 5.339 0 0 0 359.731 64.103 Q 359.504 64.59 359.425 65.064 A 3.144 3.144 0 0 0 359.4 65.25 A 17.771 17.771 0 0 0 359.301 66.988 A 16.278 16.278 0 0 0 359.3 67.1 L 359.3 67.5 Z M 306.2 81 L 274.6 81 A 5.183 5.183 0 0 1 273.176 80.822 Q 271.578 80.364 271.154 78.734 A 5.304 5.304 0 0 1 271 77.4 L 271 65.7 A 5.183 5.183 0 0 1 271.179 64.276 Q 271.636 62.678 273.267 62.254 A 5.304 5.304 0 0 1 274.6 62.1 L 301.5 62.1 A 3.147 3.147 0 0 0 302.283 62.009 A 2.071 2.071 0 0 0 303.45 61.25 A 3.149 3.149 0 0 0 304.075 59.656 A 4.083 4.083 0 0 0 304.1 59.2 Q 304.1 57.589 303.516 56.786 A 2.028 2.028 0 0 0 303.45 56.7 A 2.307 2.307 0 0 0 302.367 55.968 Q 302.003 55.846 301.561 55.805 A 4.475 4.475 0 0 0 301.5 55.8 L 286.5 53.7 A 29.221 29.221 0 0 1 281.451 52.467 Q 277.84 51.214 275.25 49.05 A 10.567 10.567 0 0 1 272.2 44.657 Q 271.506 42.868 271.214 40.622 A 27.317 27.317 0 0 1 271 37.1 L 271 26.6 Q 271 18 276.5 13.5 Q 281.141 9.703 288.771 9.11 A 37.799 37.799 0 0 1 291.7 9 L 319.7 9 A 5.183 5.183 0 0 1 321.125 9.179 Q 322.722 9.636 323.147 11.267 A 5.304 5.304 0 0 1 323.3 12.6 L 323.3 24.5 A 5.183 5.183 0 0 1 323.122 25.925 Q 322.664 27.523 321.033 27.947 A 5.304 5.304 0 0 1 319.7 28.1 L 296.4 28.1 A 3.467 3.467 0 0 0 295.283 28.265 Q 293.738 28.791 293.701 30.992 A 6.487 6.487 0 0 0 293.7 31.1 A 4.574 4.574 0 0 0 293.849 32.317 Q 294.333 34.071 296.4 34.3 L 311.3 36.3 A 31.817 31.817 0 0 1 315.572 37.225 A 23.668 23.668 0 0 1 319.5 38.75 Q 323 40.5 324.95 43.9 A 13.271 13.271 0 0 1 326.266 47.228 Q 326.9 49.707 326.9 52.9 L 326.9 63.4 A 20.978 20.978 0 0 1 326.25 68.777 A 14.515 14.515 0 0 1 321.4 76.45 Q 316.662 80.371 308.805 80.913 A 37.816 37.816 0 0 1 306.2 81 Z M 175 81 L 158.8 81 A 5.183 5.183 0 0 1 157.376 80.822 Q 155.778 80.364 155.354 78.734 A 5.304 5.304 0 0 1 155.2 77.4 L 155.2 64.6 L 139.9 44.1 A 46.855 46.855 0 0 1 138.867 42.596 Q 138.377 41.85 137.986 41.18 A 22.292 22.292 0 0 1 137.55 40.4 A 10.851 10.851 0 0 1 136.52 37.51 A 12.617 12.617 0 0 1 136.4 36.85 A 21.696 21.696 0 0 1 136.229 35.374 Q 136.1 33.835 136.1 31.8 L 136.1 12.6 A 5.183 5.183 0 0 1 136.279 11.176 Q 136.736 9.578 138.367 9.154 A 5.304 5.304 0 0 1 139.7 9 L 155.1 9 A 5.183 5.183 0 0 1 156.525 9.179 Q 158.122 9.636 158.547 11.267 A 5.304 5.304 0 0 1 158.7 12.6 L 158.7 29 Q 158.7 30 158.8 31.05 A 4.249 4.249 0 0 0 159.102 32.246 A 5.941 5.941 0 0 0 159.6 33.2 L 164.2 40.4 A 5 5 0 0 0 164.76 41.184 Q 165.572 42.1 166.6 42.1 L 167.6 42.1 A 2.256 2.256 0 0 0 169.085 41.532 Q 169.42 41.25 169.723 40.829 A 5.662 5.662 0 0 0 170 40.4 L 174.6 33.2 Q 175.3 32.1 175.4 31.05 A 21.625 21.625 0 0 0 175.5 29.002 L 175.5 29 L 175.5 12.6 A 5.183 5.183 0 0 1 175.679 11.176 Q 176.136 9.578 177.767 9.154 A 5.304 5.304 0 0 1 179.1 9 L 194 9 A 5.183 5.183 0 0 1 195.425 9.179 Q 197.022 9.636 197.447 11.267 A 5.304 5.304 0 0 1 197.6 12.6 L 197.6 31.8 Q 197.6 33.835 197.471 35.374 A 21.696 21.696 0 0 1 197.3 36.85 A 11.52 11.52 0 0 1 196.585 39.473 A 10.267 10.267 0 0 1 196.15 40.4 A 24.19 24.19 0 0 1 195.421 41.671 Q 195.079 42.229 194.674 42.837 A 48.29 48.29 0 0 1 193.8 44.1 L 178.6 64.7 L 178.6 77.4 A 5.183 5.183 0 0 1 178.422 78.825 Q 177.964 80.423 176.333 80.847 A 5.304 5.304 0 0 1 175 81 Z M 259.5 12.6 L 259.5 62.1 A 25.731 25.731 0 0 1 258.925 67.658 A 20.102 20.102 0 0 1 257.05 72.8 A 13.631 13.631 0 0 1 253.148 77.273 Q 251.489 78.526 249.325 79.51 A 26.239 26.239 0 0 1 248.3 79.95 A 28.151 28.151 0 0 1 243.574 81.349 Q 238.894 82.338 232.381 82.478 A 102.159 102.159 0 0 1 230.2 82.5 A 85.08 85.08 0 0 1 223.623 82.264 Q 216.681 81.723 212.3 79.95 A 22.258 22.258 0 0 1 208.43 77.955 Q 206.192 76.487 204.749 74.601 A 12.372 12.372 0 0 1 203.6 72.8 A 20.921 20.921 0 0 1 201.497 66.204 A 27.4 27.4 0 0 1 201.2 62.1 L 201.2 45.9 A 5.183 5.183 0 0 1 201.379 44.476 Q 201.836 42.878 203.467 42.454 A 5.304 5.304 0 0 1 204.8 42.3 L 219.3 42.3 A 5.183 5.183 0 0 1 220.725 42.479 Q 222.322 42.936 222.747 44.567 A 5.304 5.304 0 0 1 222.9 45.9 L 222.9 58.1 Q 222.9 60.1 224.15 61.45 A 2.896 2.896 0 0 0 225.118 62.103 Q 226.694 62.8 230 62.8 A 22.21 22.21 0 0 0 231.764 62.736 Q 234.64 62.506 235.5 61.45 Q 236.6 60.1 236.6 58.1 L 236.6 12.6 A 5.183 5.183 0 0 1 236.779 11.176 Q 237.236 9.578 238.867 9.154 A 5.304 5.304 0 0 1 240.2 9 L 255.9 9 A 5.183 5.183 0 0 1 257.325 9.179 Q 258.922 9.636 259.347 11.267 A 5.304 5.304 0 0 1 259.5 12.6 Z M 490 64.2 L 451.9 75.1 Q 448.583 75.745 448.322 72.569 A 6.97 6.97 0 0 1 448.3 72 L 448.3 58.8 A 7.436 7.436 0 0 1 448.367 57.762 Q 448.535 56.58 449.117 55.936 A 2.244 2.244 0 0 1 449.15 55.9 Q 449.771 55.242 450.954 54.905 A 8.008 8.008 0 0 1 451.9 54.7 L 480.6 47 Q 481.7 46.8 482 46.4 A 1.207 1.207 0 0 0 482.17 46.069 Q 482.3 45.693 482.3 45.1 Q 482.3 44.2 482 43.8 Q 481.764 43.485 481.029 43.294 A 5.903 5.903 0 0 0 480.6 43.2 L 451.9 35.5 A 7.341 7.341 0 0 1 450.84 35.257 Q 450.308 35.089 449.895 34.848 A 3.062 3.062 0 0 1 449.15 34.25 A 2.982 2.982 0 0 1 448.562 33.216 Q 448.407 32.764 448.343 32.209 A 7.167 7.167 0 0 1 448.3 31.4 L 448.3 18.2 A 5.835 5.835 0 0 1 448.412 16.999 Q 448.932 14.538 451.865 15.094 A 7.146 7.146 0 0 1 451.9 15.1 L 490 26 A 37.16 37.16 0 0 1 493.182 27.058 Q 494.731 27.657 496.026 28.347 A 19.987 19.987 0 0 1 497 28.9 Q 499.8 30.6 501.25 33.55 Q 502.297 35.679 502.588 38.876 A 28.98 28.98 0 0 1 502.7 41.5 L 502.7 48.7 A 27.039 27.039 0 0 1 502.529 51.845 Q 502.202 54.632 501.25 56.6 Q 499.8 59.6 497 61.3 A 22.491 22.491 0 0 1 494.282 62.692 Q 492.843 63.317 491.154 63.853 A 41.583 41.583 0 0 1 490 64.2 Z M 50.8 75.1 L 12.7 64.2 Q 9.033 63.127 6.365 61.653 A 21.411 21.411 0 0 1 5.75 61.3 Q 2.9 59.6 1.45 56.6 Q 0 53.6 0 48.7 L 0 41.5 Q 0 38.101 0.67 35.65 A 11.812 11.812 0 0 1 1.45 33.55 Q 2.9 30.6 5.75 28.9 A 24.557 24.557 0 0 1 8.697 27.416 Q 10.18 26.784 11.896 26.244 A 42.323 42.323 0 0 1 12.7 26 L 50.8 15.1 Q 54.118 14.455 54.378 17.632 A 6.97 6.97 0 0 1 54.4 18.2 L 54.4 31.4 A 6.792 6.792 0 0 1 54.325 32.445 Q 54.148 33.582 53.55 34.25 A 3.161 3.161 0 0 1 52.646 34.936 Q 52.226 35.156 51.694 35.307 A 7.626 7.626 0 0 1 50.8 35.5 L 22.1 43.2 Q 21.288 43.363 20.904 43.657 A 1.069 1.069 0 0 0 20.75 43.8 A 1.182 1.182 0 0 0 20.537 44.171 Q 20.414 44.501 20.402 44.99 A 4.394 4.394 0 0 0 20.4 45.1 Q 20.4 45.928 20.696 46.332 A 0.989 0.989 0 0 0 20.75 46.4 Q 21.052 46.745 21.837 46.941 A 5.682 5.682 0 0 0 22.1 47 L 50.8 54.7 A 7.842 7.842 0 0 1 51.836 54.931 Q 52.359 55.089 52.769 55.312 A 3.104 3.104 0 0 1 53.55 55.9 Q 54.393 56.792 54.4 58.764 A 9.33 9.33 0 0 1 54.4 58.8 L 54.4 72 A 5.835 5.835 0 0 1 54.288 73.201 Q 53.768 75.662 50.835 75.107 A 7.146 7.146 0 0 1 50.8 75.1 Z M 89.4 81 L 73.9 81 A 5.183 5.183 0 0 1 72.476 80.822 Q 70.878 80.364 70.454 78.734 A 5.304 5.304 0 0 1 70.3 77.4 L 70.3 12.6 A 5.183 5.183 0 0 1 70.479 11.176 Q 70.936 9.578 72.567 9.154 A 5.304 5.304 0 0 1 73.9 9 L 104.5 9 Q 113.574 9 118.721 11.436 A 16.682 16.682 0 0 1 118.75 11.45 A 17.435 17.435 0 0 1 122.545 13.858 A 13.249 13.249 0 0 1 126 18.3 A 21.156 21.156 0 0 1 127.78 24.183 A 27.975 27.975 0 0 1 128.1 28.5 L 128.1 41.3 Q 128.1 47.1 126 51.5 A 13.568 13.568 0 0 1 121.406 56.818 A 18.515 18.515 0 0 1 118.75 58.35 A 21.346 21.346 0 0 1 114.538 59.795 Q 110.346 60.796 104.546 60.8 A 66.376 66.376 0 0 1 104.5 60.8 L 93 60.8 L 93 77.4 A 5.183 5.183 0 0 1 92.822 78.825 Q 92.364 80.423 90.733 80.847 A 5.304 5.304 0 0 1 89.4 81 Z M 405.1 86.4 L 417.1 3.6 A 8.894 8.894 0 0 1 417.256 2.615 Q 417.511 1.461 418.05 0.85 A 2.133 2.133 0 0 1 418.847 0.301 Q 419.57 0 420.7 0 L 435.2 0 Q 439.064 0 438.822 3.359 A 6.232 6.232 0 0 1 438.8 3.6 L 426.8 86.4 A 8.894 8.894 0 0 1 426.644 87.386 Q 426.389 88.539 425.85 89.15 A 2.133 2.133 0 0 1 425.053 89.7 Q 424.33 90 423.2 90 L 408.7 90 Q 404.837 90 405.078 86.642 A 6.232 6.232 0 0 1 405.1 86.4 Z M 101.8 27.7 L 92.8 27.7 L 92.8 42.8 L 101.8 42.8 Q 104.413 42.8 105.403 41.582 A 2.429 2.429 0 0 0 105.6 41.3 A 6.359 6.359 0 0 0 106.486 38.369 A 7.722 7.722 0 0 0 106.5 37.9 L 106.5 32.6 A 7.458 7.458 0 0 0 106.309 30.873 A 5.772 5.772 0 0 0 105.6 29.15 Q 104.741 27.766 102.059 27.703 A 11.066 11.066 0 0 0 101.8 27.7 Z" vector-effect="non-scaling-stroke"/></g></svg>
